<svg version="1.0" xmlns="http://www.w3.org/2000/svg"
 width="563.000000pt" height="507.000000pt" viewBox="0 0 563.000000 507.000000"
 preserveAspectRatio="xMidYMid meet">

<style>
    #dynamicstylevars{}
</style>

<g transform="translate(0.000000,507.000000) scale(0.100000,-0.100000)"
fill="#000000" stroke="none">
<path d="M1218 4691 c-26 -4 -60 -16 -75 -27 -41 -30 -63 -104 -56 -184 4 -53
2 -68 -11 -79 -25 -21 -19 -72 14 -124 53 -83 65 -118 62 -173 l-3 -51 -65
-18 c-35 -9 -80 -25 -99 -35 -19 -10 -51 -21 -72 -25 -37 -7 -93 -33 -125 -58
-37 -29 -67 -119 -82 -247 -8 -69 -25 -152 -37 -185 -17 -47 -24 -93 -29 -210
-5 -105 -13 -163 -25 -195 -19 -47 -21 -119 -14 -385 2 -89 -2 -141 -15 -201
-17 -76 -17 -85 -2 -138 26 -89 101 -158 120 -110 3 9 6 32 6 51 0 36 0 36 20
18 11 -10 23 -15 27 -11 13 13 11 199 -3 264 -16 78 -6 149 36 259 39 103 70
226 70 279 0 24 5 78 12 121 9 61 13 73 19 53 4 -14 20 -65 35 -115 22 -73 27
-109 27 -190 0 -91 -3 -108 -36 -193 -49 -125 -61 -245 -54 -535 6 -224 12
-270 57 -437 26 -94 30 -209 16 -460 -8 -133 -8 -136 23 -230 40 -125 68 -266
83 -410 10 -110 10 -121 -11 -191 -12 -41 -36 -93 -52 -116 -42 -59 -39 -80
14 -94 60 -16 223 -8 243 13 26 25 22 236 -5 328 -15 49 -13 154 4 295 18 143
19 413 2 510 -8 45 -9 86 -4 115 5 25 10 137 11 250 1 113 8 257 15 320 7 63
10 136 7 163 -5 46 -5 47 23 47 28 0 28 -1 24 -43 -3 -24 1 -99 8 -167 20
-184 25 -539 14 -875 -5 -157 -3 -226 9 -320 19 -138 20 -245 5 -295 -5 -19
-12 -51 -13 -70 -21 -235 -19 -248 40 -268 40 -14 200 -12 237 3 24 10 21 43
-9 82 -28 38 -60 119 -70 180 -14 89 31 367 87 542 31 95 31 97 23 231 -16
268 -11 372 24 500 43 158 52 241 52 461 0 260 -13 362 -57 469 -34 79 -36 93
-37 190 0 88 5 120 28 195 44 141 50 137 65 -40 11 -113 29 -188 76 -310 37
-98 48 -170 33 -236 -14 -67 -18 -268 -4 -276 5 -3 17 4 27 16 18 22 18 22 21
-25 6 -88 54 -81 103 16 33 67 38 108 19 186 -13 50 -17 104 -15 194 6 305 5
343 -13 390 -13 32 -21 90 -26 195 -7 118 -14 166 -33 225 -14 41 -30 124 -37
184 -11 103 -27 166 -57 212 -17 27 -97 70 -148 80 -22 4 -60 17 -85 29 -25
13 -69 28 -97 35 l-53 12 0 62 c0 56 5 70 45 136 47 79 57 128 30 150 -11 9
-14 32 -12 94 2 95 -19 150 -68 177 -35 20 -140 30 -207 20z m181 -24 c51 -18
72 -53 76 -128 3 -35 2 -55 -1 -44 -10 35 -27 43 -20 10 3 -16 7 -54 8 -82 1
-29 5 -53 10 -53 4 0 8 8 8 18 1 15 2 15 15 -2 9 -12 12 -29 8 -45 -8 -32 -32
-71 -45 -71 -5 0 -7 10 -3 23 6 21 6 21 -9 3 -18 -22 -20 -36 -7 -36 23 0 -13
-69 -58 -112 -43 -42 -55 -48 -91 -48 -36 0 -48 6 -91 48 -45 43 -81 112 -58
112 15 0 10 16 -12 41 -19 23 -20 23 -10 2 14 -27 14 -33 0 -33 -5 0 -19 20
-30 45 -16 36 -18 49 -8 66 11 21 12 21 21 4 7 -12 7 -20 -2 -25 -9 -5 -8 -9
3 -13 12 -4 15 13 20 96 3 56 4 103 2 105 -2 2 -8 -16 -14 -40 -10 -41 -10
-40 -7 24 4 78 22 113 69 133 39 17 179 18 226 2z m-209 -597 c0 -19 5 -42 10
-50 7 -11 10 0 10 38 0 49 1 52 19 42 26 -13 97 -13 123 1 20 11 20 9 16 -52
-4 -59 -4 -62 8 -34 7 17 14 41 14 55 1 14 5 34 10 45 8 18 9 17 9 -7 2 -52
17 -75 56 -81 47 -8 125 -37 125 -48 0 -8 -45 -24 -105 -35 -22 -4 -33 -9 -24
-11 9 -2 47 3 83 12 85 19 127 19 173 0 48 -20 71 -41 94 -86 26 -52 52 -229
45 -309 -5 -59 -4 -62 7 -36 13 30 13 30 36 -48 31 -104 40 -257 17 -310 -20
-47 -20 -52 -1 -36 12 10 17 5 32 -27 15 -33 17 -71 18 -288 1 -168 5 -270 14
-313 15 -70 10 -141 -12 -157 -8 -6 -17 -22 -19 -35 -6 -42 -24 -32 -21 12 2
42 1 42 -9 -9 -6 -29 -15 -53 -19 -53 -5 0 -9 3 -9 8 -4 144 -7 180 -17 197
-11 17 -12 12 -13 -38 0 -55 -12 -97 -28 -97 -16 0 -6 185 13 237 17 46 17 61
7 126 -6 41 -27 110 -46 153 -41 96 -66 210 -71 326 -2 47 -11 113 -20 146
-41 161 -53 261 -42 372 5 52 5 56 -2 20 -30 -156 -41 -167 -198 -190 -116
-18 -116 -24 2 -21 79 3 128 16 151 42 l19 21 7 -38 c4 -22 7 -93 7 -159 1
-96 -4 -133 -20 -185 -14 -43 -23 -102 -26 -175 -5 -117 -9 -100 58 -281 42
-116 46 -479 8 -741 -15 -105 -95 -332 -131 -370 -42 -45 -90 -34 -117 28 -19
42 -38 39 -22 -4 13 -34 58 -67 91 -67 40 0 67 27 96 95 l25 60 -7 -76 c-4
-52 -1 -116 11 -195 21 -142 16 -221 -19 -323 -53 -152 -105 -475 -89 -552 5
-24 3 -30 -6 -24 -10 6 -11 3 -2 -13 6 -12 15 -23 20 -27 5 -3 15 -22 22 -43
6 -20 25 -54 41 -74 31 -39 29 -63 -3 -55 -11 3 -19 1 -19 -4 0 -14 -27 -11
-34 4 -5 9 -7 9 -12 0 -8 -19 -41 -16 -48 4 -5 12 -9 14 -18 5 -19 -19 -73
-14 -94 9 -16 17 -19 36 -18 112 1 110 12 190 25 182 15 -10 11 125 -11 330
-24 231 -25 327 -4 458 13 80 14 112 5 156 -12 61 -13 178 -1 261 4 30 8 47 9
38 0 -9 5 -19 10 -22 5 -3 1 20 -9 53 -38 120 -54 420 -26 464 15 22 58 169
51 175 -2 2 -12 -23 -24 -55 -36 -101 -53 -128 -81 -128 -28 0 -45 27 -81 128
-12 32 -22 57 -24 55 -7 -7 34 -150 49 -173 29 -44 12 -376 -23 -468 -13 -34
-14 -40 -2 -33 20 13 28 -211 10 -294 -8 -40 -7 -74 5 -160 21 -141 20 -199
-4 -454 -27 -283 -28 -319 -12 -331 16 -13 32 -132 28 -208 -5 -74 -26 -107
-69 -107 -18 0 -38 5 -45 12 -9 9 -13 7 -18 -5 -8 -23 -44 -22 -44 1 -1 16 -1
16 -14 0 -14 -19 -36 -24 -36 -9 0 5 -8 7 -19 4 -32 -8 -34 16 -3 55 16 20 35
54 41 74 7 21 17 40 22 43 5 4 14 15 20 27 9 16 8 19 -1 13 -10 -6 -11 0 -6
26 14 77 -39 404 -90 551 -35 100 -40 189 -19 328 11 76 15 140 11 190 l-7 75
25 -60 c29 -69 56 -95 97 -95 35 0 86 44 95 83 9 39 -10 34 -24 -7 -35 -96
-120 -74 -161 43 -11 31 -31 83 -45 117 -32 77 -51 189 -66 385 -14 192 0 451
29 533 10 28 29 78 41 111 19 53 22 73 17 170 -3 73 -12 132 -26 175 -16 51
-21 90 -21 185 0 66 3 137 6 158 l7 38 22 -21 c32 -30 79 -40 180 -39 l90 1
-118 18 c-153 23 -167 34 -192 158 -10 51 -13 58 -14 32 -1 -19 3 -50 8 -68
11 -37 -5 -154 -40 -307 -12 -49 -22 -128 -24 -175 -4 -103 -33 -232 -74 -321
-16 -36 -36 -99 -44 -141 -13 -70 -13 -78 6 -124 15 -36 20 -75 21 -146 1 -54
-2 -98 -6 -98 -16 0 -28 41 -28 97 -1 50 -2 55 -13 38 -6 -11 -13 -60 -13
-110 -1 -49 -6 -91 -12 -93 -5 -1 -14 21 -20 50 -10 49 -11 50 -7 10 4 -53
-14 -52 -29 2 -6 21 -14 35 -18 31 -16 -16 -20 74 -7 149 8 52 13 168 14 321
0 207 2 245 18 279 15 34 19 37 34 25 15 -12 16 -12 9 6 -35 87 -32 224 7 346
l24 74 11 -35 c10 -31 11 -26 6 35 -6 84 20 264 46 315 22 44 46 65 93 85 46
19 88 19 173 0 36 -9 74 -14 83 -12 9 2 -2 7 -24 11 -61 12 -105 27 -105 36 0
9 115 50 142 50 22 0 38 29 38 72 0 25 3 29 10 18 5 -8 10 -31 10 -50z"/>
<path d="M1125 4591 c-4 -12 -4 -25 -1 -28 3 -4 6 -2 6 4 0 6 22 2 53 -8 28
-10 77 -18 107 -18 30 0 79 8 108 18 45 16 52 16 52 3 0 -9 3 -13 6 -9 4 3 4
18 0 32 -6 25 -7 25 -27 6 -25 -23 -62 -31 -143 -31 -74 0 -132 15 -145 37 -7
14 -10 13 -16 -6z"/>
<path d="M1153 4462 c-7 -4 8 -8 35 -9 33 -1 41 1 27 7 -26 11 -47 12 -62 2z"/>
<path d="M1365 4461 c-14 -6 -5 -8 27 -7 25 1 41 4 35 8 -15 9 -36 9 -62 -1z"/>
<path d="M1183 4400 c2 -23 13 -26 32 -6 16 16 10 26 -16 26 -12 0 -17 -7 -16
-20z"/>
<path d="M1357 4414 c-7 -8 17 -34 32 -34 6 0 11 9 11 20 0 19 -28 28 -43 14z"/>
<path d="M1460 4343 c0 -10 4 -14 8 -8 4 6 11 13 16 18 5 4 2 7 -7 7 -10 0
-17 -8 -17 -17z"/>
<path d="M1260 4296 c0 -9 39 -13 51 -5 10 6 4 9 -18 9 -18 0 -33 -2 -33 -4z"/>
<path d="M1273 4243 c9 -2 25 -2 35 0 9 3 1 5 -18 5 -19 0 -27 -2 -17 -5z"/>
<path d="M1273 4213 c9 -2 25 -2 35 0 9 3 1 5 -18 5 -19 0 -27 -2 -17 -5z"/>
<path d="M1278 3903 c6 -2 18 -2 25 0 6 3 1 5 -13 5 -14 0 -19 -2 -12 -5z"/>
<path d="M1530 3560 c-8 -5 -11 -12 -7 -16 4 -4 13 -2 19 4 15 15 7 24 -12 12z"/>
<path d="M1035 3550 c3 -5 10 -10 16 -10 5 0 9 5 9 10 0 6 -7 10 -16 10 -8 0
-12 -4 -9 -10z"/>
<path d="M1157 3215 c-67 -45 -70 -52 -10 -21 47 23 71 43 62 50 -2 1 -26 -12
-52 -29z"/>
<path d="M1372 3238 c2 -6 29 -25 59 -41 65 -37 62 -31 -9 17 -30 20 -52 31
-50 24z"/>
<path d="M1265 2960 c-3 -5 1 -10 10 -10 9 0 13 5 10 10 -3 6 -8 10 -10 10 -2
0 -7 -4 -10 -10z"/>
<path d="M1010 2857 c0 -6 63 -93 77 -107 3 -3 -4 13 -15 35 -18 37 -62 87
-62 72z"/>
<path d="M1520 2803 c-17 -26 -30 -52 -30 -57 0 -6 10 5 21 24 12 19 30 45 42
58 11 12 15 22 9 22 -7 0 -26 -21 -42 -47z"/>
<path d="M1061 396 c-7 -8 -20 -17 -29 -19 -9 -2 6 -2 33 1 55 5 65 8 65 23 0
6 -9 5 -21 -2 -16 -8 -23 -8 -29 0 -5 9 -10 8 -19 -3z"/>
<path d="M1450 402 c0 -16 9 -19 70 -25 30 -3 46 -3 35 0 -11 3 -25 9 -31 14
-6 5 -19 7 -28 3 -9 -3 -23 -1 -31 6 -10 8 -15 9 -15 2z"/>
<path d="M2725 4687 c-16 -7 -39 -17 -51 -24 -28 -16 -56 -74 -43 -89 6 -7 5
-31 -1 -64 -6 -29 -8 -55 -6 -57 5 -5 12 18 21 70 6 36 8 38 34 32 26 -5 94 5
135 21 15 6 17 3 12 -12 -13 -41 -10 -107 6 -118 22 -16 38 -51 38 -83 0 -27
0 -27 15 -6 10 14 22 20 37 17 21 -4 22 -4 3 5 -19 9 -19 10 2 10 36 1 44 -29
23 -77 -16 -34 -24 -42 -47 -43 -27 0 -27 -1 -5 -11 13 -7 22 -20 22 -35 0
-13 11 -33 24 -44 31 -27 48 -125 25 -140 -10 -6 -4 -9 18 -9 22 0 43 -10 65
-30 l33 -30 -28 10 c-47 17 -45 10 6 -16 92 -48 114 -125 75 -268 -14 -50 -29
-100 -33 -110 -6 -13 -5 -17 2 -13 14 9 28 -165 18 -229 -8 -58 -50 -242 -61
-268 -5 -14 -4 -17 4 -12 20 12 14 -97 -7 -162 -11 -31 -43 -97 -70 -147 -28
-49 -51 -96 -51 -102 0 -32 -64 -209 -91 -251 -16 -25 -29 -51 -29 -57 0 -7
-10 -20 -22 -31 l-22 -19 18 28 c33 54 9 37 -28 -18 -35 -54 -56 -69 -56 -42
0 8 9 22 20 32 23 21 60 114 60 151 0 36 -20 26 -48 -24 -25 -45 -48 -57 -37
-19 14 45 45 103 85 157 39 53 41 59 55 185 25 222 45 341 65 401 22 63 26 90
8 60 -9 -17 -15 -4 -35 80 -21 85 -24 114 -19 202 4 66 12 114 22 135 16 29
16 31 1 18 -14 -11 -17 -11 -21 0 -2 8 -9 29 -15 48 -24 76 2 193 57 254 13
15 13 17 1 12 -27 -10 -79 -109 -86 -163 -3 -28 -10 -49 -14 -46 -17 10 -9
-13 11 -31 31 -28 43 -88 34 -169 -11 -98 -6 -153 21 -278 l23 -108 -19 -73
c-10 -39 -25 -140 -33 -222 -22 -220 -31 -255 -88 -326 -28 -35 -68 -125 -68
-154 0 -27 39 -16 55 16 9 17 19 29 21 26 10 -10 -15 -79 -40 -112 -42 -55
-33 -95 14 -70 70 36 146 165 195 330 28 92 102 248 114 241 15 -10 52 -97 61
-147 11 -59 2 -126 -31 -214 -15 -42 -19 -89 -23 -290 -2 -132 -10 -294 -16
-361 l-11 -121 41 -96 c96 -226 94 -364 -10 -712 -23 -77 -45 -174 -49 -215
l-7 -75 -7 60 c-4 33 -4 76 -1 95 4 20 3 31 -2 27 -8 -8 -23 -277 -16 -287 2
-3 9 3 17 13 11 15 14 9 23 -50 7 -49 7 -75 -2 -93 -11 -25 -13 -25 -151 -28
-77 -1 -151 -3 -165 -4 -14 -1 -44 -1 -67 0 -52 2 -58 24 -10 42 108 40 180
95 220 168 50 93 60 172 47 372 -20 321 -30 424 -49 510 -19 85 -19 107 0 80
25 -36 -5 38 -34 83 -29 47 -30 51 -24 132 5 69 3 84 -9 89 -36 14 -122 257
-153 433 -24 137 -16 271 22 381 14 40 23 70 18 68 -4 -3 -14 -23 -21 -46 -8
-23 -17 -37 -22 -32 -5 5 -11 53 -13 108 -2 54 -9 113 -15 129 -28 73 -40 146
-40 242 0 57 3 103 6 103 4 0 22 -9 40 -21 19 -11 34 -16 34 -10 0 6 -3 11 -7
11 -5 0 -26 15 -47 33 l-39 34 -7 103 c-4 56 -5 114 -1 128 7 24 8 25 116 25
l110 -1 -95 7 c-144 11 -161 26 -135 126 31 120 154 289 259 357 55 36 57 41
11 22 -12 -5 -15 5 -15 55 0 34 2 61 4 61 2 0 20 7 41 16 l38 15 -6 -35 c-3
-20 -2 -34 3 -31 5 3 12 26 16 50 3 25 10 48 15 51 5 3 9 15 8 27 -1 20 -2 20
-8 -3 -4 -18 -24 -34 -71 -57 -82 -40 -127 -50 -154 -33 -19 12 -20 12 -7 -3
9 -11 29 -17 56 -17 40 0 43 -2 49 -32 10 -54 1 -70 -76 -148 -80 -81 -139
-169 -168 -253 -23 -66 -25 -270 -4 -406 8 -52 19 -153 24 -225 5 -72 14 -147
20 -166 26 -85 41 -255 34 -400 -5 -114 -3 -164 10 -232 31 -164 106 -390 144
-432 13 -14 17 -38 17 -115 0 -73 4 -102 17 -121 48 -72 92 -442 93 -785 0
-142 -12 -191 -65 -270 -31 -45 -116 -107 -172 -125 -45 -14 -73 -47 -56 -67
12 -15 177 -17 248 -3 30 6 60 6 91 -2 50 -12 108 2 110 26 1 6 2 101 3 211 2
188 3 205 28 280 15 44 42 139 60 210 55 221 42 399 -43 567 -30 60 -31 65
-25 152 3 50 9 213 12 361 6 258 7 273 31 340 21 55 26 90 27 160 1 83 -2 96
-32 158 l-34 68 17 47 c10 27 20 102 25 177 5 72 18 175 30 230 19 91 20 108
9 206 -11 100 -10 112 10 177 24 78 27 167 9 209 -23 51 -79 122 -113 143 -25
15 -38 33 -46 62 -14 56 -6 93 48 206 41 86 46 105 47 168 0 61 -4 81 -30 130
-27 53 -35 61 -84 81 -62 25 -202 31 -255 10z m250 -26 c70 -31 103 -91 105
-186 1 -63 -86 -294 -110 -295 -46 -1 -51 50 -14 126 25 51 25 55 10 79 -17
25 -50 33 -61 15 -9 -15 -25 -12 -25 5 0 8 -11 25 -25 37 -27 23 -32 62 -16
131 5 20 8 37 6 37 -1 0 -16 -7 -33 -16 -37 -18 -167 -31 -175 -17 -9 15 20
51 56 70 84 44 200 50 282 14z"/>
<path d="M4302 4690 c-90 -13 -119 -58 -133 -200 -4 -47 -11 -101 -14 -120 -4
-25 0 -45 14 -70 63 -113 82 -164 75 -206 -6 -40 -8 -43 -52 -54 -26 -6 -71
-22 -101 -36 -29 -13 -63 -24 -75 -24 -42 0 -97 -22 -130 -50 -46 -41 -75
-123 -87 -249 -6 -58 -22 -140 -36 -181 -20 -59 -26 -106 -32 -225 -6 -109
-13 -162 -26 -195 -16 -38 -18 -68 -16 -185 6 -297 4 -330 -13 -405 -14 -61
-15 -85 -6 -124 14 -65 34 -100 70 -126 44 -31 64 -13 57 53 l-4 49 22 -29
c13 -15 27 -24 31 -20 15 15 13 199 -3 262 -20 79 -12 143 27 241 51 125 70
201 81 319 5 61 13 123 17 140 8 27 10 22 36 -59 56 -179 57 -285 5 -411 -50
-122 -54 -157 -54 -470 1 -306 4 -331 56 -515 24 -84 28 -228 15 -465 -8 -127
-7 -132 22 -225 42 -131 70 -266 83 -407 11 -113 11 -122 -11 -197 -13 -42
-36 -94 -52 -113 -34 -43 -36 -71 -5 -77 50 -10 208 -15 229 -7 37 14 52 54
51 134 0 87 -5 124 -23 200 -11 50 -12 81 0 200 19 213 26 422 16 512 -5 44
-9 114 -8 155 0 41 1 157 1 258 0 100 5 210 11 244 5 34 13 119 16 190 4 71
11 131 16 134 5 3 15 0 23 -6 11 -9 15 -38 15 -114 0 -55 7 -148 15 -206 9
-70 12 -150 8 -240 -3 -81 -1 -158 6 -194 8 -46 8 -77 -5 -155 -13 -75 -15
-135 -10 -276 3 -99 11 -205 16 -235 13 -72 14 -231 1 -289 -27 -125 -30 -150
-21 -212 7 -51 15 -69 36 -88 24 -20 35 -23 78 -17 28 3 81 6 117 6 85 0 93
14 45 84 -20 28 -44 84 -56 126 -19 72 -19 80 -5 202 17 150 36 238 77 368 39
125 44 198 23 345 -20 145 -14 235 25 390 43 166 53 260 53 490 -1 260 -13
360 -56 457 -30 68 -32 80 -32 188 0 97 5 131 29 218 18 62 33 98 37 90 4 -8
12 -67 18 -131 13 -131 37 -233 83 -341 37 -87 46 -170 26 -247 -21 -78 -13
-261 11 -257 9 2 21 19 28 38 12 34 12 33 12 -32 1 -37 5 -69 10 -72 20 -13
70 26 92 71 30 62 34 125 15 214 -13 59 -16 121 -14 304 3 196 0 237 -14 275
-11 30 -18 89 -22 175 -4 104 -11 150 -34 230 -16 55 -34 147 -40 204 -18 178
-74 259 -193 277 -24 4 -57 14 -74 22 -16 9 -61 25 -100 37 -63 20 -70 24 -76
52 -8 38 26 140 65 197 27 40 36 109 16 121 -5 3 -10 38 -10 77 0 141 -36 193
-141 208 -71 11 -73 11 -147 0z m187 -24 c55 -20 74 -53 79 -143 3 -64 0 -87
-18 -128 -12 -27 -17 -51 -12 -53 11 -3 -2 -61 -24 -103 -28 -56 -174 -80
-228 -38 -14 11 -33 33 -40 47 -19 38 -36 103 -25 97 13 -9 12 -2 -12 57 -16
42 -20 67 -16 120 5 82 30 129 77 145 45 15 175 15 219 -1z m-300 -298 c5 -13
11 -39 15 -58 l7 -35 -21 24 c-11 13 -20 37 -20 57 0 39 7 44 19 12z m401 -27
c-14 -45 -22 -61 -31 -61 -11 0 -12 -3 7 60 10 35 19 49 24 40 4 -7 4 -24 0
-39z m-346 -127 c3 -8 2 -12 -4 -9 -6 3 -10 10 -10 16 0 14 7 11 14 -7z m277
-7 c-10 -9 -11 -8 -5 6 3 10 9 15 12 12 3 -3 0 -11 -7 -18z m-231 -39 c0 -13
4 -18 8 -13 4 6 40 10 82 10 50 -1 79 3 88 12 26 25 32 13 30 -56 -2 -75 10
-101 45 -101 32 0 127 -33 121 -42 -3 -4 -17 -9 -32 -9 -15 -1 11 -5 58 -9
178 -14 238 -82 260 -295 7 -61 23 -143 37 -185 21 -62 26 -97 29 -205 2 -105
7 -144 25 -195 20 -57 22 -80 19 -190 -2 -69 -3 -164 -3 -212 1 -49 -3 -88 -8
-88 -5 0 -3 -14 6 -30 26 -49 31 -181 10 -235 -12 -32 -22 -45 -31 -41 -8 3
-14 -1 -14 -10 0 -8 -4 -12 -10 -9 -5 3 -10 -1 -10 -9 0 -9 -4 -16 -10 -16 -6
0 -10 35 -10 86 0 64 3 85 13 82 6 -3 15 -24 18 -49 l6 -44 1 38 c1 23 6 36
12 32 6 -4 8 -22 5 -43 -7 -41 8 -26 19 20 5 22 1 30 -28 47 -26 17 -33 26
-29 44 4 17 1 16 -15 -9 -11 -17 -23 -49 -27 -72 -3 -22 -12 -46 -20 -52 -10
-9 -14 5 -17 72 -3 66 0 98 19 158 25 82 27 91 14 72 -5 -8 -10 16 -14 61 -4
53 -15 96 -37 146 -33 76 -63 202 -75 311 l-6 64 22 -19 23 -20 -23 40 c-41
70 -52 112 -41 158 24 111 32 327 11 327 -3 0 -6 -39 -7 -88 0 -92 -42 -339
-76 -452 -11 -36 -22 -107 -25 -158 -5 -82 -8 -91 -22 -80 -10 9 -8 1 6 -22
51 -84 91 -216 102 -332 22 -226 3 -557 -38 -698 -44 -147 -53 -280 -31 -437
18 -129 10 -232 -24 -313 -63 -147 -117 -315 -66 -205 23 49 24 40 6 -55 -15
-78 -32 -234 -29 -260 12 -92 49 -217 61 -205 8 8 42 -26 42 -42 0 -9 -14 -13
-45 -13 -42 0 -45 2 -45 28 -1 15 -10 52 -21 82 l-20 55 5 -50 c2 -27 7 -58
11 -67 11 -28 -29 -58 -79 -58 -64 0 -74 16 -53 93 9 34 15 63 13 65 -2 1 -12
-16 -22 -40 l-19 -43 -3 52 c-2 31 3 66 13 89 10 24 12 40 6 42 -6 2 -7 12 -2
25 5 12 12 51 17 87 6 56 9 61 15 35 l7 -30 1 36 c0 19 -5 58 -13 85 -35 122
-49 442 -26 605 11 78 11 111 1 172 -14 85 -6 249 11 225 7 -9 8 -5 4 12 -12
48 -36 266 -43 384 l-6 119 53 -5 c56 -6 49 5 -11 16 -42 7 -54 19 -64 58 -8
30 -25 29 -25 -2 0 -25 -46 -60 -79 -60 -14 0 -33 -5 -41 -10 -10 -6 2 -7 38
-3 l52 6 0 -86 c0 -98 -25 -345 -40 -396 -5 -19 -7 -37 -5 -40 3 -2 5 2 6 10
0 8 4 6 9 -6 12 -29 12 -171 -1 -239 -8 -44 -7 -80 5 -162 9 -57 16 -139 16
-182 0 -108 -29 -379 -46 -430 -8 -23 -13 -64 -12 -90 l1 -47 7 50 c6 50 6 50
12 15 4 -19 9 -53 12 -75 2 -22 7 -49 12 -59 5 -14 4 -17 -4 -12 -15 9 -15 6
3 -37 8 -20 15 -65 14 -99 l0 -63 -24 60 c-27 69 -32 62 -9 -14 8 -29 14 -64
12 -79 -3 -25 -7 -27 -54 -30 -75 -4 -87 11 -79 102 l5 71 -16 -50 c-8 -27
-18 -65 -21 -82 -5 -31 -7 -33 -49 -33 -24 0 -44 4 -44 8 0 15 28 47 41 47 7
0 18 16 25 35 6 19 17 53 24 75 8 22 13 76 13 120 -1 75 -27 276 -40 313 -4
10 -2 14 3 9 5 -5 14 -23 21 -40 6 -18 12 -24 12 -15 1 18 -36 122 -83 235
-37 88 -42 159 -21 317 18 129 18 142 2 254 -9 64 -25 149 -36 188 -41 151
-58 540 -32 729 11 80 67 236 102 287 25 35 24 50 -1 19 l-20 -23 0 84 c0 54
-8 114 -21 164 -40 153 -79 387 -79 479 0 62 -3 85 -10 75 -15 -23 -12 -182 6
-286 l16 -94 -31 -66 c-35 -75 -38 -87 -15 -58 37 46 -13 -244 -61 -351 -15
-33 -33 -99 -41 -147 -11 -78 -11 -92 5 -145 15 -49 19 -144 11 -233 -2 -16
-30 38 -30 56 0 12 -9 41 -20 65 -16 37 -20 40 -20 19 0 -18 -9 -31 -30 -43
-33 -20 -35 -27 -15 -77 l14 -35 -5 45 c-3 30 -1 38 4 25 8 -17 9 -15 15 13
11 55 27 36 28 -35 1 -70 0 -95 -6 -102 -7 -7 -32 24 -28 36 2 6 -4 10 -14 9
-13 -1 -23 14 -38 56 -17 52 -18 64 -7 130 7 40 19 83 28 95 8 13 10 23 5 23
-5 0 -12 91 -15 203 -6 172 -4 210 10 257 9 30 19 72 21 93 3 20 9 39 13 42 4
2 3 28 -2 56 -11 60 3 166 32 249 11 30 27 113 35 184 15 137 37 192 91 235
37 29 120 54 157 47 18 -3 46 -2 62 3 l30 9 -27 1 c-16 1 -28 5 -28 11 0 10
91 40 121 40 35 0 50 29 49 94 -2 77 -2 76 10 76 6 0 10 -10 10 -22z"/>
<path d="M4301 3649 c-7 -24 -21 -59 -32 -77 -25 -44 -24 -50 5 -23 14 13 30
45 36 72 15 63 8 85 -9 28z"/>
<path d="M4451 3652 c-1 -39 19 -91 42 -111 21 -17 21 -8 0 32 -9 18 -22 50
-29 72 l-13 40 0 -33z"/>
<path d="M3809 3037 c7 -7 18 -7 33 0 22 10 21 11 -10 10 -22 0 -30 -3 -23
-10z"/>
<path d="M4916 3039 c3 -5 11 -9 19 -9 8 0 16 4 19 9 3 5 -5 9 -19 9 -14 0
-22 -4 -19 -9z"/>
<path d="M4427 2872 c-9 -10 -23 -33 -31 -52 l-14 -34 -14 34 c-8 19 -23 42
-33 50 -15 13 -15 9 4 -27 11 -23 26 -66 33 -95 l11 -53 11 55 c6 31 22 73 34
94 25 42 24 56 -1 28z"/>
<path d="M5003 2635 c0 -22 2 -30 4 -17 2 12 2 30 0 40 -3 9 -5 -1 -4 -23z"/>
<path d="M3762 2630 c0 -14 2 -19 5 -12 2 6 2 18 0 25 -3 6 -5 1 -5 -13z"/>
<path d="M3725 2475 c-10 -20 -16 -38 -13 -40 3 -3 13 11 23 30 22 47 15 55
-10 10z"/>
<path d="M5021 2495 c0 -11 9 -31 20 -45 l20 -25 -14 30 c-8 17 -17 37 -20 45
-4 11 -6 9 -6 -5z"/>
<path d="M4227 1656 c-4 -10 -7 -32 -6 -49 1 -31 1 -31 10 7 10 43 7 72 -4 42z"/>
<path d="M4524 1657 c3 -10 6 -33 6 -50 0 -24 3 -28 10 -17 10 16 3 59 -13 75
-7 7 -8 4 -3 -8z"/>
<path d="M4126 1610 c8 -56 14 -64 14 -19 0 19 -5 41 -10 49 -7 10 -8 1 -4
-30z"/>
<path d="M4631 1636 c-7 -8 -11 -32 -9 -53 l3 -38 11 53 c6 28 10 52 8 52 -1
0 -7 -6 -13 -14z"/>
<path d="M2657 4463 c-3 -5 15 -8 38 -8 24 0 39 3 32 7 -16 10 -64 10 -70 1z"/>
<path d="M2622 4419 c-1 -15 -12 -48 -23 -74 -21 -47 -21 -49 -3 -62 10 -8 19
-27 20 -44 1 -17 9 -35 17 -42 9 -7 18 -23 20 -37 3 -18 5 -14 6 13 1 29 -3
37 -16 37 -16 1 -16 2 1 15 19 14 19 15 2 15 -15 0 -17 6 -13 29 5 24 3 28
-12 24 -29 -7 -32 10 -10 51 12 23 19 50 16 70 -3 27 -4 27 -5 5z"/>
<path d="M2670 4405 c0 -19 9 -19 34 0 19 14 19 15 -7 15 -17 0 -27 -5 -27
-15z"/>
<path d="M2904 4341 c3 -14 0 -31 -6 -38 -7 -9 -7 -13 1 -13 18 0 23 24 11 51
l-11 24 5 -24z"/>
<path d="M2825 4308 l-16 -33 21 24 c11 13 20 27 20 32 0 18 -10 8 -25 -23z"/>
<path d="M2796 3940 c-27 -11 -54 -24 -60 -30 -6 -6 20 0 58 15 39 14 72 28
75 30 10 11 -27 3 -73 -15z"/>
<path d="M2575 3540 c3 -5 10 -10 16 -10 5 0 9 5 9 10 0 6 -7 10 -16 10 -8 0
-12 -4 -9 -10z"/>
<path d="M2731 2973 c-1 -17 4 -35 9 -38 11 -7 11 9 0 45 -8 24 -8 24 -9 -7z"/>
<path d="M2870 1891 c-13 -28 -20 -54 -17 -58 8 -8 50 84 45 98 -2 6 -14 -12
-28 -40z"/>
<path d="M3001 1739 c-15 -43 -13 -108 4 -144 8 -16 13 -21 11 -10 -3 11 -7
34 -10 50 -4 17 -2 52 3 80 11 59 8 69 -8 24z"/>
</g>

<circle class="temple" cx="144" cy="57" r="2" fill="none"/>
<circle class="temple" cx="114" cy="57" r="2" fill="none"/>
<circle class="temple" cx="277" cy="57" r="2" fill="none"/>

<circle class="topHead" cx="284" cy="37" r="4" fill="none"/>
<ellipse class="inHead" cx="284" cy="49" rx="12" ry="6" fill="none"/>

<circle class="neck" cx="122" cy="98" r="3" fill="none"/>
<circle class="neck" cx="135" cy="98" r="3" fill="none"/>
<circle class="neck" cx="283" cy="98" r="3" fill="none"/>

<circle class="jaw" cx="117" cy="90" r="3" fill="none"/>
<circle class="jaw" cx="140" cy="90" r="3" fill="none"/>
<ellipse class="jaw" cx="278" cy="88" rx="9" ry="3" fill="none"/>

<circle class="upperEyes" cx="117" cy="59" r="3" fill="none"/>
<circle class="upperEyes" cx="139" cy="59" r="3" fill="none"/>
<circle class="upperEyes" cx="269" cy="59" r="3" fill="none"/>

<circle class="nape" cx="431" cy="93" r="4" fill="none"/>
<circle class="nape" cx="445" cy="93" r="4" fill="none"/>

<circle class="kidney" cx="430" cy="204" r="4" fill="none"/>
<circle class="kidney" cx="445" cy="204" r="4" fill="none"/>

<circle class="shoulder" cx="98" cy="109" r="3" fill="none"/>
<circle class="shoulder" cx="160" cy="109" r="3" fill="none"/>
<circle class="shoulder" cx="409" cy="109" r="3" fill="none"/>
<circle class="shoulder" cx="466" cy="109" r="3" fill="none"/>

<circle class="forehead" cx="128" cy="57" r="3" fill="none"/>
<circle class="headCrown" cx="438" cy="51" r="14" fill="none"/>
<circle class="centerUpperBack" cx="432" cy="134" r="3" fill="none"/>
<circle class="centerUpperBack" cx="444" cy="134" r="3" fill="none"/>

<circle class="occipitalBone" cx="303" cy="74" r="3" fill="none"/>
</svg>